<svg width="12" height="16" viewBox="0 0 12 16" fill="none" xmlns="http://www.w3.org/2000/svg">
<path fill-rule="evenodd" clip-rule="evenodd" d="M2.3831 0.0487667C2.82044 -0.00856659 3.0471 0.4661 3.29644 0.863433C3.7791 1.62477 4.14577 2.22877 4.5911 2.9421C4.7791 3.2421 5.1871 3.65277 5.12577 4.08743C5.0711 4.47543 4.61777 4.5981 4.28977 4.7701C3.92443 4.96343 3.47644 5.0821 3.37244 5.4581C3.2031 6.07943 3.69777 6.86343 3.95643 7.28343C4.31243 7.8581 4.57777 8.28343 4.89643 8.78343C5.23777 9.31143 5.5231 9.80343 5.88577 10.2514C6.19244 10.6328 6.66443 11.3408 7.25777 11.3194C7.6431 11.3088 7.79243 10.9888 8.0711 10.7594C8.24177 10.6194 8.5311 10.2434 8.90843 10.2514C9.3471 10.2648 9.5391 10.8274 9.71643 11.1168C10.1698 11.8248 10.5604 12.4448 11.0138 13.1741C11.1871 13.4528 11.6098 13.9208 11.5711 14.2888C11.5391 14.5928 11.1351 14.7861 10.7844 14.9501C10.4298 15.1141 10.1071 15.2968 9.79643 15.3768C8.9271 15.6194 7.9111 15.3088 7.23243 14.9994C6.49777 14.6634 5.88577 14.1714 5.40443 13.7541C4.28177 12.7941 3.40444 11.6768 2.58577 10.4314C1.75244 9.16077 1.06844 7.8541 0.557769 6.31943C0.039102 4.7621 -0.200898 2.38477 0.859102 1.16877C1.02577 0.975434 1.2871 0.800767 1.5711 0.584767C1.82577 0.384767 2.0831 0.0901001 2.3831 0.0487667Z" fill="#2B2B2A"/>
</svg>
