<svg width="9" height="11" viewBox="0 0 9 11" fill="none" xmlns="http://www.w3.org/2000/svg">
<path fill-rule="evenodd" clip-rule="evenodd" d="M2.21454 0.580077C2.50654 0.541411 2.65988 0.861411 2.82788 1.12674C3.15188 1.64008 3.39721 2.04141 3.69588 2.52274C3.82254 2.72274 4.09721 2.99874 4.05588 3.29074C4.01854 3.55208 3.71454 3.63208 3.49321 3.75208C3.24788 3.88274 2.94788 3.96008 2.87854 4.21074C2.76521 4.63208 3.09721 5.15874 3.27054 5.43741C3.50921 5.82274 3.68921 6.11074 3.90121 6.44141C4.13054 6.79874 4.32254 7.12941 4.56521 7.43208C4.77188 7.68674 5.08788 8.16141 5.48788 8.14808C5.74521 8.13741 5.84521 7.92674 6.03188 7.77341C6.14788 7.67608 6.34254 7.42941 6.59588 7.43208C6.89054 7.43741 7.01854 7.81741 7.13854 8.01208C7.44121 8.48674 7.70388 8.90274 8.00788 9.38941C8.12654 9.58008 8.40921 9.89474 8.38388 10.1401C8.36121 10.3454 8.09054 10.4734 7.85454 10.5827C7.61588 10.6974 7.40121 10.8147 7.19188 10.8721C6.60654 11.0387 5.92654 10.8281 5.47054 10.6187C4.97588 10.3921 4.56521 10.0614 4.24254 9.78274C3.48921 9.13741 2.89988 8.38941 2.35054 7.55208C1.79188 6.69741 1.33054 5.82274 0.989211 4.79074C0.639878 3.74674 0.479878 2.15074 1.19188 1.33074C1.30388 1.20274 1.47854 1.08808 1.66921 0.937411C1.83988 0.806744 2.01321 0.608077 2.21454 0.580077Z" fill="white"/>
</svg>
