<svg width="10" height="14" viewBox="0 0 10 14" fill="none" xmlns="http://www.w3.org/2000/svg">
<path fill-rule="evenodd" clip-rule="evenodd" d="M3.17516 4.16326C3.08049 4.33792 2.99916 4.53259 2.95249 4.76459C2.78183 5.63659 3.17116 6.37926 3.59649 6.77526C4.62316 7.73659 6.39516 7.37659 6.99116 6.13259C7.74849 4.55659 6.42049 2.90592 4.78049 3.09792C3.99649 3.19126 3.42449 3.70726 3.17516 4.16326ZM5.08316 13.6873C4.56449 13.1139 4.10716 12.4606 3.65783 11.7993C2.77649 10.5019 1.89916 9.12992 1.26583 7.55926C0.94316 6.76192 0.629827 5.93126 0.70316 4.82726C0.824494 3.01259 2.10716 1.59526 3.59649 1.08726C4.08716 0.920589 4.63383 0.808588 5.28583 0.845921C6.58449 0.925921 7.50049 1.46992 8.17783 2.17392C8.84583 2.86859 9.41383 3.80859 9.42449 5.12726C9.43249 6.11659 9.11116 6.97259 8.78183 7.71792C7.81383 9.91392 6.41516 11.9113 5.08316 13.6873Z" fill="white"/>
</svg>
