<svg width="11" height="8" viewBox="0 0 11 8" fill="none" xmlns="http://www.w3.org/2000/svg">
<path fill-rule="evenodd" clip-rule="evenodd" d="M9.89792 0.749375C9.93792 0.793375 9.78725 0.882708 9.71792 0.929375C8.45792 1.74404 7.05525 2.55471 5.78059 3.35071C4.35125 2.52004 2.94725 1.66404 1.60059 0.749375C4.33392 0.718708 7.16459 0.718708 9.89792 0.749375Z" fill="white"/>
<path fill-rule="evenodd" clip-rule="evenodd" d="M10.7864 1.51489C10.8344 2.88955 10.7864 4.03355 10.7864 5.41355C10.7864 5.82022 10.8544 6.30422 10.7437 6.66289C10.6984 6.82155 10.3944 7.14822 10.1797 7.20822C9.90235 7.29089 9.47168 7.24955 9.07035 7.24955H2.26768C1.86902 7.24955 1.43568 7.26022 1.21568 7.16822C1.06502 7.10555 0.819684 6.79889 0.771684 6.62422C0.679684 6.28022 0.731685 5.80155 0.731685 5.35089C0.731685 4.55089 0.711684 3.67889 0.711684 2.78555C0.711684 2.35889 0.657018 1.92689 0.731685 1.53622C0.737018 1.50689 0.737017 1.45755 0.771684 1.49622C2.22768 2.33222 3.61168 3.27489 5.09168 4.16022C5.28768 4.27755 5.59702 4.48155 5.75835 4.48422C5.93035 4.48689 6.24768 4.28022 6.44502 4.16022C7.90368 3.27755 9.28902 2.32422 10.7864 1.51489Z" fill="white"/>
</svg>
