<svg width="13" height="16" viewBox="0 0 13 16" fill="none" xmlns="http://www.w3.org/2000/svg">
<path fill-rule="evenodd" clip-rule="evenodd" d="M10.7333 3.3744C10.4439 1.36907 8.71459 -0.174934 6.28526 0.117066C5.18926 0.246399 4.33193 0.809066 3.78259 1.50773C3.40526 1.98373 3.04526 2.48107 2.94659 3.4944C2.80659 4.94773 3.39459 6.08507 4.05859 6.74907C6.53059 9.22107 11.2973 7.25973 10.7333 3.3744Z" fill="#2B2B2A"/>
<path fill-rule="evenodd" clip-rule="evenodd" d="M12.4836 11.1998C12.4236 10.5825 12.3743 10.0798 12.3249 9.6118C12.2729 9.1318 12.2623 8.41047 12.1236 8.02247C11.9183 7.4398 11.0409 6.9678 10.0983 7.22647C9.92094 7.2758 9.7436 7.5198 9.5436 7.6638C8.89294 8.12647 8.3196 8.3198 7.43694 8.53847C7.78627 9.5958 8.07694 10.7051 8.39027 11.7958C7.91027 12.4545 7.36094 13.0438 6.84094 13.6638C6.3356 13.0145 5.7436 12.4545 5.29027 11.7571C5.6316 10.6918 5.9236 9.58247 6.24627 8.4998C5.47294 8.3558 4.8876 8.17847 4.33827 7.82247C4.06894 7.6478 3.8476 7.29847 3.5436 7.22647C2.53027 6.9918 1.75427 7.46247 1.55694 8.06113C1.39294 8.5638 1.34494 9.89047 1.1996 11.1211C1.1316 11.6865 1.09027 12.2078 1.04094 12.6718C0.980938 13.2411 0.844938 13.8278 0.920938 14.2985C1.12627 15.5825 2.77294 15.2905 4.21827 15.2905H9.26494C10.7756 15.2905 12.3503 15.5691 12.7209 14.4998C12.9316 13.8905 12.6196 12.5931 12.4836 11.1998Z" fill="#2B2B2A"/>
</svg>
