<svg width="16" height="11" viewBox="0 0 16 11" fill="none" xmlns="http://www.w3.org/2000/svg">
<path fill-rule="evenodd" clip-rule="evenodd" d="M14.0483 1.02543C14.1056 1.0881 13.8843 1.22543 13.7749 1.29343C11.8949 2.5121 9.79627 3.72276 7.88694 4.91876C5.75094 3.67343 3.65227 2.3921 1.6416 1.02543C5.72827 0.978762 9.9576 0.978762 14.0483 1.02543Z" fill="#2B2B2A"/>
<path fill-rule="evenodd" clip-rule="evenodd" d="M15.3762 2.17376C15.4469 4.2231 15.3762 5.93376 15.3762 7.9991C15.3762 8.60843 15.4776 9.3351 15.3136 9.8711C15.2429 10.1004 14.7909 10.5911 14.4669 10.6844C14.0509 10.8071 13.4069 10.7444 12.8109 10.7444H2.63889C2.04022 10.7444 1.39489 10.7618 1.06423 10.6271C0.842892 10.5311 0.474892 10.0724 0.400225 9.80977C0.264225 9.2991 0.342893 8.57777 0.342893 7.90843C0.342893 6.71243 0.313559 5.40843 0.313559 4.0751C0.313559 3.4311 0.230893 2.7831 0.342893 2.20176C0.34956 2.16043 0.349559 2.08576 0.400225 2.1431C2.57623 3.38976 4.64689 4.80176 6.86023 6.1271C7.15489 6.30176 7.61623 6.60577 7.85756 6.60843C8.11623 6.61377 8.58956 6.3071 8.88689 6.1271C11.0669 4.8071 13.1362 3.38176 15.3762 2.17376Z" fill="#2B2B2A"/>
</svg>
