<svg width="103" height="72" viewBox="0 0 103 72" fill="none" xmlns="http://www.w3.org/2000/svg">
<path d="M40.1042 31.7306H36.3135V28.1853H40.1042V31.7306Z" fill="#2B2B2A"/>
<path d="M40.1042 37.4359H36.3135V33.8946H40.1042V37.4359Z" fill="#2B2B2A"/>
<path d="M40.1042 43.1385H36.3135V39.5998H40.1042V43.1385Z" fill="#2B2B2A"/>
<path d="M40.1042 48.8427H36.3135V45.2987H40.1042V48.8427Z" fill="#2B2B2A"/>
<path d="M46.0589 31.7306H42.2695V28.1853H46.0589V31.7306Z" fill="#2B2B2A"/>
<path d="M46.0589 37.4359H42.2695V33.8946H46.0589V37.4359Z" fill="#2B2B2A"/>
<path d="M46.0589 43.1385H42.2695V39.5998H46.0589V43.1385Z" fill="#2B2B2A"/>
<path d="M46.0589 48.8427H42.2695V45.2987H46.0589V48.8427Z" fill="#2B2B2A"/>
<path d="M52.0114 31.7306H48.2207V28.1853H52.0114V31.7306Z" fill="#2B2B2A"/>
<path d="M52.0114 37.4359H48.2207V33.8946H52.0114V37.4359Z" fill="#2B2B2A"/>
<path d="M52.0114 43.1385H48.2207V39.5998H52.0114V43.1385Z" fill="#2B2B2A"/>
<path d="M52.0114 48.8427H48.2207V45.2987H52.0114V48.8427Z" fill="#2B2B2A"/>
<path d="M57.9681 31.7306H54.1748V28.1853H57.9681V31.7306Z" fill="#2B2B2A"/>
<path d="M57.9681 37.4359H54.1748V33.8946H57.9681V37.4359Z" fill="#2B2B2A"/>
<path d="M57.9681 43.1385H54.1748V39.5998H57.9681V43.1385Z" fill="#2B2B2A"/>
<path d="M57.9681 48.8427H54.1748V45.2987H57.9681V48.8427Z" fill="#2B2B2A"/>
<path d="M0.574219 44.8119V51.4972H4.65955V48.8679H29.1169V51.4972H33.2022V44.8119H29.4809V28.1892H13.4756C11.2009 28.1892 9.18489 28.7012 7.43155 29.7305C5.35822 30.9399 4.32489 32.6105 4.32489 34.7359V44.8119H0.574219ZM8.41022 35.6052C8.41022 34.7265 9.04888 33.9252 10.3329 33.1972C11.4676 32.5612 12.5182 32.2465 13.4849 32.2465H25.3929V44.8119H8.41022V35.6052ZM101.985 48.8679V30.2319C101.985 29.6359 101.824 29.1145 101.508 28.6799C101.19 28.2385 100.741 28.0212 100.164 28.0212C99.6062 28.0212 99.0649 28.2852 98.5435 28.8092L83.2075 44.0425L68.0822 28.7892C67.5569 28.2772 67.0035 28.0212 66.4249 28.0212C65.8422 28.0212 65.3915 28.2385 65.0729 28.6799C64.7555 29.1145 64.5982 29.6359 64.5982 30.2319V48.8679H68.6809V35.1545L81.7502 48.2839C82.1449 48.6705 82.6235 48.8679 83.2075 48.8679C83.7809 48.8679 84.2595 48.6825 84.6329 48.3079L97.8969 35.0985V48.8679H101.985Z" fill="#2B2B2A"/>
<path d="M3.38089 71.1542V70.0835H0.574219V66.4982H1.09289V69.6315H2.82755V66.4982H3.35289V69.6315H3.88889V71.1542H3.38089Z" fill="#2B2B2A"/>
<path d="M7.15564 70.0839V67.3065L5.31164 70.0839H4.79297V66.4985H5.31164V69.2585L7.15564 66.4985H7.68097V70.0839H7.15564Z" fill="#2B2B2A"/>
<path d="M11.1048 66.9205V69.6605C11.9635 69.6392 12.4008 69.1138 12.4008 68.2912C12.4008 67.5112 12.0368 66.9498 11.1048 66.9205ZM10.5928 66.9205C9.66882 66.9498 9.29682 67.5112 9.29682 68.2912C9.29682 69.1138 9.73415 69.6392 10.5928 69.6605V66.9205ZM11.1102 70.1285V71.6898H10.5862V70.1285C9.45682 70.0712 8.77148 69.4658 8.77148 68.2818C8.77148 67.1098 9.44882 66.5125 10.5862 66.4552V64.8952H11.1102V66.4552C12.2462 66.5125 12.9248 67.1098 12.9248 68.2818C12.9248 69.4658 12.2408 70.0712 11.1102 70.1285" fill="#2B2B2A"/>
<path d="M15.4383 66.9205C14.8103 66.9205 14.5423 67.3365 14.5423 68.2912C14.5423 69.2538 14.8103 69.6605 15.445 69.6605C16.0716 69.6605 16.3396 69.2538 16.3396 68.2992C16.3396 67.3232 16.0796 66.9205 15.4383 66.9205ZM15.5316 70.1285C15.3143 70.1285 15.1236 70.0912 14.9556 70.0112C14.8023 69.9392 14.7156 69.8658 14.5423 69.6605V71.6898H14.0156V66.4978H14.5423V66.9205C14.709 66.7232 14.797 66.6498 14.949 66.5712C15.109 66.4898 15.2996 66.4552 15.5236 66.4552C16.4503 66.4552 16.8663 67.0298 16.8663 68.2992C16.8663 69.5458 16.4436 70.1285 15.5316 70.1285" fill="#2B2B2A"/>
<path d="M19.9195 67.1835C19.7569 67.0155 19.5182 66.9208 19.2635 66.9208C19.0142 66.9208 18.7742 67.0155 18.6142 67.1835C18.4035 67.3955 18.3222 67.7075 18.3222 68.2915C18.3222 68.8755 18.4035 69.1795 18.6142 69.3995C18.7742 69.5688 19.0062 69.6608 19.2635 69.6608C19.5182 69.6608 19.7569 69.5688 19.9195 69.3995C20.1209 69.1888 20.2035 68.8808 20.2035 68.3141C20.2035 67.6995 20.1289 67.3955 19.9195 67.1835ZM20.2902 69.7195C20.0289 69.9821 19.6715 70.1288 19.2635 70.1288C18.8529 70.1288 18.4969 69.9821 18.2342 69.7195C17.9289 69.4075 17.7969 68.9835 17.7969 68.2915C17.7969 67.5995 17.9289 67.1741 18.2342 66.8621C18.4969 66.5995 18.8529 66.4555 19.2635 66.4555C19.6649 66.4555 20.0289 66.5995 20.2902 66.8621C20.5969 67.1675 20.7275 67.5995 20.7275 68.2675C20.7275 68.9835 20.6035 69.3995 20.2902 69.7195" fill="#2B2B2A"/>
<path d="M23.4668 68.4524H22.3722V69.631H23.4668C23.8748 69.631 24.1148 69.399 24.1148 69.0417C24.1148 68.6844 23.8748 68.4524 23.4668 68.4524ZM23.4202 66.9497H22.3722V68.0217H23.4202C23.8375 68.0217 24.0548 67.823 24.0548 67.4804C24.0548 67.1404 23.8295 66.9497 23.4202 66.9497M23.5615 70.0844H21.8535V66.4977H23.5162C24.1508 66.4977 24.5748 66.871 24.5748 67.439C24.5748 67.823 24.3695 68.095 24.0028 68.2257C24.3922 68.371 24.6322 68.655 24.6322 69.0924C24.6322 69.7044 24.2295 70.0844 23.5615 70.0844" fill="#2B2B2A"/>
<path d="M27.8076 68.431H26.8009C26.2702 68.431 25.9982 68.6416 25.9982 69.0643C25.9982 69.4936 26.2622 69.6776 26.8676 69.6776C27.5382 69.6776 27.8076 69.4296 27.8076 68.815V68.431ZM27.8076 70.0843V69.743C27.6342 69.9096 27.5462 69.9736 27.3996 70.0336C27.2316 70.1043 27.0409 70.1283 26.7662 70.1283C25.9329 70.1283 25.4902 69.7563 25.4902 69.0723C25.4902 68.4216 25.9582 68.0376 26.7276 68.0376H27.8076V67.6936C27.8076 67.1483 27.5249 66.9043 26.8676 66.9043C26.6356 66.9043 26.4609 66.943 26.3129 67.015C26.1916 67.0736 26.1169 67.1403 25.9849 67.315L25.6289 66.9843C25.8156 66.767 25.9062 66.687 26.0796 66.6003C26.2862 66.4976 26.5382 66.455 26.8822 66.455C27.8436 66.455 28.3342 66.8536 28.3342 67.6496V70.0843H27.8076Z" fill="#2B2B2A"/>
<path d="M31.6092 66.9297H30.5959C30.1386 66.9297 29.8826 67.1684 29.8826 67.5924C29.8826 68.007 30.1386 68.247 30.5959 68.247H31.6092V66.9297ZM29.3652 70.0844L30.2039 68.6124C29.6932 68.511 29.3652 68.1177 29.3652 67.5684C29.3652 66.9297 29.8172 66.4977 30.4932 66.4977H32.1279V70.0844H31.6092V68.6764H30.7519L29.9706 70.0844H29.3652Z" fill="#2B2B2A"/>
<path d="M37.519 70.0839V66.9492H35.7843V70.0839H35.2656V66.4985H38.0443V70.0839H37.519Z" fill="#2B2B2A"/>
<path d="M41.4969 70.0839V66.9492H40.2289V68.1892C40.2289 69.6905 39.7476 70.0839 39.0889 70.0839H38.8516V69.6319H38.9689C39.2889 69.6319 39.7262 69.5305 39.7262 68.0372V66.4985H42.0209V70.0839H41.4969Z" fill="#2B2B2A"/>
<path d="M45.3659 68.431H44.3592C43.8259 68.431 43.5552 68.6416 43.5552 69.0643C43.5552 69.4936 43.8192 69.6776 44.4246 69.6776C45.0952 69.6776 45.3659 69.4296 45.3659 68.815V68.431ZM45.3659 70.0843V69.743C45.1886 69.9096 45.1019 69.9736 44.9566 70.0336C44.7886 70.1043 44.5992 70.1283 44.3232 70.1283C43.4926 70.1283 43.0459 69.7563 43.0459 69.0723C43.0459 68.4216 43.5139 68.0376 44.2846 68.0376H45.3659V67.6936C45.3659 67.1483 45.0806 66.9043 44.4246 66.9043C44.1899 66.9043 44.0166 66.943 43.8699 67.015C43.7472 67.0736 43.6726 67.1403 43.5419 67.315L43.1846 66.9843C43.3739 66.767 43.4619 66.687 43.6366 66.6003C43.8406 66.4976 44.0952 66.455 44.4406 66.455C45.3992 66.455 45.8899 66.8536 45.8899 67.6496V70.0843H45.3659Z" fill="#2B2B2A"/>
<path d="M48.272 66.9497V70.0844H47.7466V66.9497H46.5146V66.4977H49.444V66.9497H48.272Z" fill="#2B2B2A"/>
<path d="M52.2878 66.9205V69.6605C53.1478 69.6392 53.5838 69.1138 53.5838 68.2912C53.5838 67.5112 53.2185 66.9498 52.2878 66.9205ZM51.7745 66.9205C50.8491 66.9498 50.4785 67.5112 50.4785 68.2912C50.4785 69.1138 50.9158 69.6392 51.7745 69.6605V66.9205ZM52.2918 70.1285V71.6898H51.7678V70.1285C50.6385 70.0712 49.9531 69.4658 49.9531 68.2818C49.9531 67.1098 50.6305 66.5125 51.7678 66.4552V64.8952H52.2918V66.4552C53.4291 66.5125 54.1091 67.1098 54.1091 68.2818C54.1091 69.4658 53.4238 70.0712 52.2918 70.1285" fill="#2B2B2A"/>
<path d="M57.1298 67.1835C56.9684 67.0155 56.7284 66.9208 56.4738 66.9208C56.2284 66.9208 55.9844 67.0155 55.8258 67.1835C55.6151 67.3955 55.5351 67.7075 55.5351 68.2915C55.5351 68.8755 55.6151 69.1795 55.8258 69.3995C55.9844 69.5688 56.2191 69.6608 56.4738 69.6608C56.7284 69.6608 56.9684 69.5688 57.1298 69.3995C57.3324 69.1888 57.4151 68.8808 57.4151 68.3141C57.4151 67.6995 57.3404 67.3955 57.1298 67.1835ZM57.5018 69.7195C57.2404 69.9821 56.8831 70.1288 56.4738 70.1288C56.0658 70.1288 55.7098 69.9821 55.4471 69.7195C55.1404 69.4075 55.0098 68.9835 55.0098 68.2915C55.0098 67.5995 55.1404 67.1741 55.4471 66.8621C55.7098 66.5995 56.0658 66.4555 56.4738 66.4555C56.8751 66.4555 57.2404 66.5995 57.5018 66.8621C57.8084 67.1675 57.9378 67.5995 57.9378 68.2675C57.9378 68.9835 57.8164 69.3995 57.5018 69.7195" fill="#2B2B2A"/>
<path d="M60.4809 66.9205C59.8529 66.9205 59.5836 67.3365 59.5836 68.2912C59.5836 69.2538 59.8529 69.6605 60.4889 69.6605C61.1156 69.6605 61.3849 69.2538 61.3849 68.2992C61.3849 67.3232 61.1222 66.9205 60.4809 66.9205ZM60.5756 70.1285C60.3569 70.1285 60.1676 70.0912 60.0009 70.0112C59.8476 69.9392 59.7582 69.8658 59.5836 69.6605V71.6898H59.0596V66.4978H59.5836V66.9205C59.7542 66.7232 59.8382 66.6498 59.9929 66.5712C60.1502 66.4898 60.3436 66.4552 60.5676 66.4552C61.4929 66.4552 61.9102 67.0298 61.9102 68.2992C61.9102 69.5458 61.4862 70.1285 60.5756 70.1285" fill="#2B2B2A"/>
<path d="M65.9668 70.0839V67.5332L64.9681 69.5145H64.5668L63.5535 67.5332V70.0839H63.0361V66.4985H63.5535L64.7721 68.9105L65.9735 66.4985H66.4935V70.0839H65.9668Z" fill="#2B2B2A"/>
<path d="M69.8431 68.431H68.8364C68.3044 68.431 68.0351 68.6416 68.0351 69.0643C68.0351 69.4936 68.2977 69.6776 68.9031 69.6776C69.5737 69.6776 69.8431 69.4296 69.8431 68.815V68.431ZM69.8431 70.0843V69.743C69.6671 69.9096 69.5791 69.9736 69.4337 70.0336C69.2671 70.1043 69.0777 70.1283 68.8004 70.1283C67.9684 70.1283 67.5244 69.7563 67.5244 69.0723C67.5244 68.4216 67.9911 68.0376 68.7644 68.0376H69.8431V67.6936C69.8431 67.1483 69.5577 66.9043 68.9031 66.9043C68.6684 66.9043 68.4951 66.943 68.3471 67.015C68.2257 67.0736 68.1511 67.1403 68.0204 67.315L67.6617 66.9843C67.8524 66.767 67.9404 66.687 68.1151 66.6003C68.3191 66.4976 68.5737 66.455 68.9177 66.455C69.8777 66.455 70.3684 66.8536 70.3684 67.6496V70.0843H69.8431Z" fill="#2B2B2A"/>
<path d="M73.4844 70.0839V66.4985H74.0097V68.2185L75.591 66.4985H76.239L74.6297 68.1892L76.3844 70.0839H75.707L74.0097 68.2319V70.0839H73.4844Z" fill="#2B2B2A"/>
<path d="M78.8684 67.1835C78.7084 67.0155 78.4684 66.9208 78.2124 66.9208C77.9644 66.9208 77.7244 67.0155 77.5631 67.1835C77.3524 67.3955 77.2724 67.7075 77.2724 68.2915C77.2724 68.8755 77.3524 69.1795 77.5631 69.3995C77.7244 69.5688 77.9551 69.6608 78.2124 69.6608C78.4684 69.6608 78.7084 69.5688 78.8684 69.3995C79.0724 69.1888 79.1537 68.8808 79.1537 68.3141C79.1537 67.6995 79.0804 67.3955 78.8684 67.1835ZM79.2404 69.7195C78.9777 69.9821 78.6204 70.1288 78.2124 70.1288C77.8057 70.1288 77.4471 69.9821 77.1857 69.7195C76.8791 69.4075 76.7471 68.9835 76.7471 68.2915C76.7471 67.5995 76.8791 67.1741 77.1857 66.8621C77.4471 66.5995 77.8057 66.4555 78.2124 66.4555C78.6151 66.4555 78.9777 66.5995 79.2404 66.8621C79.5471 67.1675 79.6777 67.5995 79.6777 68.2675C79.6777 68.9835 79.5564 69.3995 79.2404 69.7195" fill="#2B2B2A"/>
<path d="M83.0563 70.0839V68.4585H81.3243V70.0839H80.8057V66.4985H81.3243V68.0065H83.0563V66.4985H83.583V70.0839H83.0563Z" fill="#2B2B2A"/>
<path d="M86.0737 66.9497V70.0844H85.5471V66.9497H84.3164V66.4977H87.2457V66.9497H86.0737Z" fill="#2B2B2A"/>
<path d="M89.3959 66.9205C88.7679 66.9205 88.4986 67.3365 88.4986 68.2912C88.4986 69.2538 88.7679 69.6605 89.4026 69.6605C90.0306 69.6605 90.2999 69.2538 90.2999 68.2992C90.2999 67.3232 90.0373 66.9205 89.3959 66.9205ZM89.4919 70.1285C89.2719 70.1285 89.0826 70.0912 88.9173 70.0112C88.7599 69.9392 88.6746 69.8658 88.4986 69.6605V71.6898H87.9746V66.4978H88.4986V66.9205C88.6653 66.7232 88.7559 66.6498 88.9066 66.5712C89.0679 66.4898 89.2586 66.4552 89.4839 66.4552C90.4093 66.4552 90.8253 67.0298 90.8253 68.2992C90.8253 69.5458 90.4013 70.1285 89.4919 70.1285" fill="#2B2B2A"/>
<path d="M93.8762 67.1835C93.7149 67.0155 93.4762 66.9208 93.2202 66.9208C92.9722 66.9208 92.7309 67.0155 92.5709 67.1835C92.3615 67.3955 92.2815 67.7075 92.2815 68.2915C92.2815 68.8755 92.3615 69.1795 92.5709 69.3995C92.7309 69.5688 92.9642 69.6608 93.2202 69.6608C93.4762 69.6608 93.7149 69.5688 93.8762 69.3995C94.0802 69.1888 94.1602 68.8808 94.1602 68.3141C94.1602 67.6995 94.0895 67.3955 93.8762 67.1835ZM94.2482 69.7195C93.9869 69.9821 93.6269 70.1288 93.2202 70.1288C92.8109 70.1288 92.4562 69.9821 92.1922 69.7195C91.8855 69.4075 91.7549 68.9835 91.7549 68.2915C91.7549 67.5995 91.8855 67.1741 92.1922 66.8621C92.4562 66.5995 92.8109 66.4555 93.2202 66.4555C93.6242 66.4555 93.9869 66.5995 94.2482 66.8621C94.5535 67.1675 94.6842 67.5995 94.6842 68.2675C94.6842 68.9835 94.5615 69.3995 94.2482 69.7195" fill="#2B2B2A"/>
<path d="M97.8781 70.0839V66.9492H96.6061V68.1892C96.6061 69.6905 96.1274 70.0839 95.4728 70.0839H95.2314V69.6319H95.3461C95.6688 69.6319 96.1048 69.5305 96.1048 68.0372V66.4985H98.4021V70.0839H97.8781Z" fill="#2B2B2A"/>
<path d="M101.716 66.9297H100.701C100.241 66.9297 99.988 67.1684 99.988 67.5924C99.988 68.007 100.241 68.247 100.701 68.247H101.716V66.9297ZM99.4707 70.0844L100.309 68.6124C99.7974 68.511 99.4707 68.1177 99.4707 67.5684C99.4707 66.9297 99.9227 66.4977 100.601 66.4977H102.233V70.0844H101.716V68.6764H100.856L100.076 70.0844H99.4707Z" fill="#2B2B2A"/>
<path d="M0.574219 55.2788V61.5468H7.33822V58.9454H14.0996V61.5468H20.8596V58.9454H27.6035V61.5468H34.3675V58.9454H41.1276V61.5468H47.8902V58.9454H54.6529V61.5468H61.4129V58.9454H68.1742V61.5468H74.9369V58.9454H81.6982V61.5468H88.4609V58.9454H95.2222V61.5468H101.985V55.2788H0.574219Z" fill="#2B2B2A"/>
<path d="M101.984 8.91466V6.10932C101.984 4.55866 101.705 3.40799 101.15 2.64132C100.594 1.88132 99.5811 1.30399 98.0985 0.914657C96.8078 0.56399 94.3371 0.393325 90.6851 0.393325H70.6611V5.41732H92.3451C93.6371 5.41732 94.5531 5.46399 95.0838 5.55466C96.3118 5.76132 96.9251 6.21332 96.9251 6.90666V8.35999C96.9251 9.49199 95.1905 10.0573 91.7171 10.0573H75.8598V15.0813H92.5838C95.4771 15.0813 96.9251 15.5907 96.9251 16.608V19.1C96.9251 20.348 94.8185 20.9707 90.6105 20.9707H70.6611V25.9987H90.5131C93.1478 25.9987 95.4918 25.6493 97.5465 24.9547C100.502 23.964 101.984 22.4173 101.984 20.3133V15.8067C101.984 14.0053 100.956 12.9453 98.8985 12.62C100.956 11.932 101.984 10.6933 101.984 8.91466Z" fill="#2B2B2A"/>
<path d="M0.574219 25.9987H5.63288V5.41733H31.4436V0.393325H0.574219V25.9987Z" fill="#2B2B2A"/>
<path d="M62.488 2.36775C60.176 1.05175 57.6586 0.393081 54.9346 0.393081H46.3413C43.5226 0.393081 41.032 1.02775 38.8573 2.29708C36.2933 3.79841 35.0146 5.86641 35.0146 8.49708V25.9984H40.072V9.57175C40.072 8.48375 40.8653 7.49708 42.452 6.59175C43.8586 5.81041 45.1573 5.41841 46.3573 5.41841H54.92C56.3253 5.41841 57.716 5.75041 59.0986 6.42241C60.7106 7.20241 61.516 8.25841 61.516 9.57175V25.9984H66.5733V8.49708C66.5733 5.95575 65.212 3.91441 62.488 2.36775Z" fill="#2B2B2A"/>
<path d="M55.1474 14.1022C53.6847 11.1755 49.4807 7.3582 49.4807 7.3582C49.4807 7.3582 50.1114 9.98887 49.5727 11.3942C47.818 15.9489 45.234 15.9182 45.2354 19.6822C45.2367 22.6622 47.6527 25.0782 50.6274 25.0729C53.6034 25.0755 55.9474 22.9422 56.318 19.8609C56.4274 18.9462 56.5954 16.9982 55.1474 14.1022Z" fill="#C52573"/>
</svg>
