<svg width="19" height="19" viewBox="0 0 19 19" fill="none" xmlns="http://www.w3.org/2000/svg">
<path fill-rule="evenodd" clip-rule="evenodd" d="M12.4161 7.97778C13.0521 5.42711 11.8721 3.23911 10.4001 2.06711C9.63477 1.45778 8.62944 1.03378 7.36144 0.969776C5.60944 0.881776 4.2601 1.65911 3.36677 2.56178C2.5441 3.39244 1.72544 4.84844 1.72544 6.56177C1.72544 9.21911 3.27344 10.8724 4.9001 11.6591C8.2081 13.2551 11.6561 11.0284 12.4161 7.97778ZM17.3721 18.1018C17.3721 18.1018 17.0201 18.1911 16.6374 18.1018C16.0441 17.9604 15.6294 17.3618 15.1481 16.8618C14.3974 16.0858 13.7654 15.4644 12.9948 14.6671C12.5548 14.2098 11.5748 13.5124 12.2108 12.9324C11.7761 12.5591 11.4441 12.0751 10.9814 11.7284C9.86944 12.5831 8.52544 13.2004 6.71344 13.0751C3.4601 12.8498 0.861436 10.1151 0.872103 6.56177C0.880103 4.63511 1.64277 3.08578 2.6481 2.03111C3.6241 1.00711 4.83477 0.291109 6.52544 0.0857755L7.38277 0.0537752C7.6841 0.0631086 8.04144 0.0884422 8.38544 0.155109C11.0548 0.681776 13.2734 3.04177 13.4401 6.17244C13.5468 8.17644 12.8948 9.39911 12.1401 10.5618C12.5254 10.9898 12.9241 11.4018 13.3348 11.8004C13.9108 11.1484 14.5828 12.2058 15.0094 12.6498C15.8121 13.4791 16.4428 14.1684 17.2308 14.9871C17.5934 15.3631 18.1401 15.7671 18.2881 16.2244C18.5748 17.1044 18.0748 17.8538 17.3721 18.1018" fill="white"/>
<path fill-rule="evenodd" clip-rule="evenodd" d="M7.3947 1.71301C7.15736 1.70101 6.86136 1.78634 6.84803 2.10234C6.8267 2.59567 7.72803 2.66367 8.1107 2.81034C9.52803 3.35301 10.632 4.45167 10.7747 6.06767C10.8187 6.57167 10.7747 7.02234 11.2174 7.02234C11.8734 7.02234 11.608 5.80234 11.46 5.21701C11.108 3.85301 10.4107 3.03834 9.30669 2.38501C8.75603 2.06101 8.0347 1.74634 7.3947 1.71301Z" fill="white"/>
</svg>
